<?xml version="1.0" encoding="UTF-8"?><svg id="Layer_2" xmlns="http://www.w3.org/2000/svg" viewBox="0 0 576.56 201.37"><g id="Layer_1-2"><g><path d="M12.7,28.28c7.35-1.48,17.87-2.3,27.89-2.3,15.54,0,25.56,2.79,32.57,9.04,5.68,4.93,8.85,12.49,8.85,21.04,0,14.63-9.35,24.33-21.21,28.28v.49c8.69,2.96,13.86,10.85,16.54,22.36,3.67,15.45,6.35,26.14,8.69,30.41h-15.03c-1.84-3.12-4.34-12.66-7.52-26.47-3.34-15.29-9.35-21.04-22.55-21.54h-13.7v48H12.7V28.28Zm14.53,50.47h14.87c15.53,0,25.39-8.38,25.39-21.04,0-14.3-10.52-20.55-25.89-20.71-7.02,0-12.03,.66-14.37,1.32v40.44Z" fill="#91af36"/><path d="M121.6,102.75l-11.69,34.85h-15.03L133.13,26.8h17.54l38.42,110.8h-15.54l-12.03-34.85h-39.92Zm36.92-11.18l-11.02-31.89c-2.51-7.23-4.18-13.81-5.85-20.22h-.33c-1.67,6.58-3.51,13.32-5.68,20.06l-11.02,32.06h33.91Z" fill="#91af36"/><path d="M205.62,28.28c7.35-1.48,17.87-2.3,27.89-2.3,15.54,0,25.56,2.79,32.57,9.04,5.68,4.93,8.85,12.49,8.85,21.04,0,14.63-9.35,24.33-21.21,28.28v.49c8.69,2.96,13.86,10.85,16.54,22.36,3.67,15.45,6.35,26.14,8.69,30.41h-15.03c-1.84-3.12-4.34-12.66-7.52-26.47-3.34-15.29-9.35-21.04-22.55-21.54h-13.7v48h-14.53V28.28Zm14.53,50.47h14.87c15.53,0,25.39-8.38,25.39-21.04,0-14.3-10.52-20.55-25.89-20.71-7.02,0-12.03,.66-14.37,1.32v40.44Z" fill="#91af36"/><path d="M353.78,85.66h-43.76v39.95h48.77v12h-63.31V26.8h60.8v12h-46.27v35.02h43.76v11.84Z" fill="#91af36"/><path d="M394.06,24.99c-3.84,13.81-11.02,31.4-15.7,38.96l-9.35,1.15c3.67-9.7,8.02-26.8,9.85-38.63l15.2-1.48Z" fill="#ffd236"/><path d="M409.31,26.8h14.53V100.95c0,29.43-14.7,38.47-34.08,38.47-5.35,0-11.86-1.15-15.54-2.63l2.17-11.67c3.01,1.15,7.35,2.14,12.19,2.14,13.03,0,20.71-5.75,20.71-27.45V26.8Z" fill="#01b3b7"/><path d="M468.32,26.8h14.53V100.95c0,29.43-14.7,38.47-34.08,38.47-5.35,0-11.86-1.15-15.54-2.63l2.17-11.67c3.01,1.15,7.35,2.14,12.19,2.14,13.03,0,20.71-5.75,20.71-27.45V26.8Z" fill="#01b3b7"/><path d="M565.37,85.66h-43.76v39.95h48.77v12h-63.31V26.8h60.8v12h-46.27v35.02h43.76v11.84Z" fill="#01b3b7"/></g><g><path d="M23.64,166.09v21.99h-1.82v-21.99h-7.68v-1.49H31.32v1.49h-7.68Z" fill="#fff"/><path d="M54.25,188.08v-11.27h-15.23v11.27h-1.84v-23.48h1.84v10.74h15.23v-10.74h1.82v23.48h-1.82Z" fill="#fff"/><path d="M64.23,188.08v-23.48h12.43v1.49h-10.59v9.41h9.83v1.47h-9.83v9.63h11.2v1.47h-13.04Z" fill="#fff"/><path d="M100.59,179.99c0,5.67-2.23,8.5-6.68,8.5-.69,0-1.37-.08-2.02-.25v-1.57c.73,.22,1.42,.33,2.06,.33,1.71,0,2.94-.57,3.69-1.71,.75-1.14,1.13-2.92,1.13-5.33v-15.36h1.82v15.39Z" fill="#fff"/><path d="M108.62,188.08v-23.48h12.43v1.49h-10.59v9.41h9.83v1.47h-9.83v9.63h11.2v1.47h-13.04Z" fill="#fff"/><path d="M150.8,188.08h-1.52l-5.92-17.67c-.3-.91-.46-1.64-.5-2.21h-.07c-.04,.48-.23,1.21-.58,2.18l-6.31,17.7h-1.52l-7.9-23.48h2.06l6.07,18.81c.27,.85,.46,1.54,.58,2.08h.07c.07-.4,.29-1.1,.65-2.08l6.57-18.81h.93l6.03,18.81c.29,.87,.48,1.57,.58,2.08h.07c.06-.31,.16-.65,.3-1.05l6.23-19.84h1.98l-7.79,23.48Z" fill="#fff"/><path d="M164.29,188.08v-23.48h12.43v1.49h-10.59v9.41h9.83v1.47h-9.83v9.63h11.2v1.47h-13.04Z" fill="#fff"/><path d="M184.62,188.08v-23.48h1.84v22.01h10.67v1.47h-12.5Z" fill="#fff"/><path d="M224.71,188.49c-3.76,0-6.76-1.1-8.99-3.31s-3.35-5.07-3.35-8.6c0-3.74,1.15-6.74,3.44-9s5.43-3.38,9.4-3.38c3.59,0,6.49,1.08,8.71,3.25,2.22,2.17,3.33,5.01,3.33,8.52,0,3.89-1.14,6.94-3.41,9.17-2.28,2.23-5.32,3.34-9.13,3.34Zm.19-22.81c-3.09,0-5.64,.99-7.63,2.96s-3,4.56-3,7.76,.95,5.8,2.84,7.72c1.89,1.92,4.42,2.87,7.57,2.87s5.89-.95,7.81-2.84c1.92-1.89,2.88-4.53,2.88-7.92s-.94-5.91-2.81-7.77c-1.87-1.86-4.42-2.79-7.65-2.79Z" fill="#fff"/><path d="M245.86,166.09v9.58h9.83v1.47h-9.83v10.94h-1.84v-23.48h12.43v1.49h-10.59Z" fill="#fff"/><path d="M272.59,187.24v-1.85c1.9,1.07,3.83,1.6,5.79,1.6,2.08,0,3.65-.38,4.73-1.14,1.08-.76,1.61-1.82,1.61-3.18,0-1.2-.36-2.16-1.09-2.87-.72-.71-2.29-1.69-4.7-2.92-2.7-1.39-4.4-2.55-5.12-3.48s-1.08-2.01-1.08-3.23c0-1.66,.73-3.07,2.19-4.22,1.46-1.16,3.41-1.74,5.84-1.74,1.58,0,3.17,.23,4.75,.7v1.7c-1.56-.62-3.22-.93-4.99-.93s-3.24,.4-4.29,1.21-1.59,1.83-1.59,3.08,.36,2.16,1.08,2.87,2.29,1.68,4.68,2.9c2.49,1.24,4.14,2.35,4.96,3.32,.82,.97,1.23,2.08,1.23,3.33,0,1.8-.71,3.27-2.12,4.4s-3.42,1.7-6,1.7c-.92,0-1.97-.13-3.16-.38s-2.11-.54-2.74-.87Z" fill="#fff"/><path d="M304.59,188.49c-3.76,0-6.76-1.1-8.99-3.31s-3.35-5.07-3.35-8.6c0-3.74,1.15-6.74,3.44-9s5.43-3.38,9.4-3.38c3.59,0,6.49,1.08,8.71,3.25,2.22,2.17,3.33,5.01,3.33,8.52,0,3.89-1.14,6.94-3.41,9.17-2.28,2.23-5.32,3.34-9.13,3.34Zm.19-22.81c-3.09,0-5.64,.99-7.63,2.96s-3,4.56-3,7.76,.95,5.8,2.84,7.72c1.89,1.92,4.42,2.87,7.57,2.87s5.89-.95,7.81-2.84c1.92-1.89,2.88-4.53,2.88-7.92s-.94-5.91-2.81-7.77c-1.87-1.86-4.42-2.79-7.65-2.79Z" fill="#fff"/><path d="M342.02,178.7c0,6.53-3.15,9.79-9.46,9.79s-9-3.14-9-9.43v-14.46h1.82v14.23c0,5.45,2.51,8.17,7.53,8.17s7.29-2.65,7.29-7.94v-14.46h1.82v14.1Z" fill="#fff"/><path d="M357.07,166.09v21.99h-1.82v-21.99h-7.68v-1.49h17.18v1.49h-7.68Z" fill="#fff"/><path d="M387.67,188.08v-11.27h-15.23v11.27h-1.84v-23.48h1.84v10.74h15.23v-10.74h1.82v23.48h-1.82Z" fill="#fff"/><path d="M397.65,188.08v-23.48h12.43v1.49h-10.59v9.41h9.83v1.47h-9.83v9.63h11.2v1.47h-13.04Z" fill="#fff"/><path d="M435.31,188.08l-3.04-7.3h-11.54l-3.04,7.3h-2.02l10.04-23.48h1.74l9.92,23.48h-2.06Zm-8.16-19.65c-.14-.33-.25-.65-.33-.97-.09-.27-.18-.55-.28-.82h-.07c-.21,.72-.41,1.3-.61,1.75l-4.47,10.89h10.26l-4.49-10.86Z" fill="#fff"/><path d="M442.38,187.24v-1.85c1.9,1.07,3.83,1.6,5.79,1.6,2.08,0,3.65-.38,4.73-1.14,1.08-.76,1.61-1.82,1.61-3.18,0-1.2-.36-2.16-1.09-2.87-.72-.71-2.29-1.69-4.7-2.92-2.7-1.39-4.4-2.55-5.12-3.48s-1.08-2.01-1.08-3.23c0-1.66,.73-3.07,2.19-4.22,1.46-1.16,3.41-1.74,5.84-1.74,1.58,0,3.17,.23,4.75,.7v1.7c-1.56-.62-3.22-.93-4.99-.93s-3.24,.4-4.29,1.21-1.59,1.83-1.59,3.08,.36,2.16,1.08,2.87,2.29,1.68,4.68,2.9c2.49,1.24,4.14,2.35,4.96,3.32,.82,.97,1.23,2.08,1.23,3.33,0,1.8-.71,3.27-2.12,4.4s-3.42,1.7-6,1.7c-.92,0-1.97-.13-3.16-.38s-2.11-.54-2.74-.87Z" fill="#fff"/><path d="M470.65,166.09v21.99h-1.82v-21.99h-7.68v-1.49h17.18v1.49h-7.68Z" fill="#fff"/><path d="M511.92,188.08l-3.04-7.3h-11.54l-3.04,7.3h-2.02l10.04-23.48h1.74l9.92,23.48h-2.06Zm-8.16-19.65c-.14-.33-.25-.65-.33-.97-.09-.27-.18-.55-.28-.82h-.07c-.21,.72-.41,1.3-.61,1.75l-4.47,10.89h10.26l-4.49-10.86Z" fill="#fff"/><path d="M518.99,187.24v-1.85c1.9,1.07,3.83,1.6,5.79,1.6,2.08,0,3.65-.38,4.73-1.14,1.08-.76,1.61-1.82,1.61-3.18,0-1.2-.36-2.16-1.09-2.87-.72-.71-2.29-1.69-4.7-2.92-2.7-1.39-4.4-2.55-5.12-3.48s-1.08-2.01-1.08-3.23c0-1.66,.73-3.07,2.19-4.22,1.46-1.16,3.41-1.74,5.84-1.74,1.58,0,3.17,.23,4.75,.7v1.7c-1.56-.62-3.22-.93-4.99-.93s-3.24,.4-4.29,1.21-1.59,1.83-1.59,3.08,.36,2.16,1.08,2.87,2.29,1.68,4.68,2.9c2.49,1.24,4.14,2.35,4.96,3.32,.82,.97,1.23,2.08,1.23,3.33,0,1.8-.71,3.27-2.12,4.4s-3.42,1.7-6,1.7c-.92,0-1.97-.13-3.16-.38s-2.11-.54-2.74-.87Z" fill="#fff"/><path d="M540.05,188.08v-23.48h1.84v23.48h-1.84Z" fill="#fff"/><path d="M567.37,188.08l-3.04-7.3h-11.54l-3.04,7.3h-2.02l10.04-23.48h1.74l9.92,23.48h-2.06Zm-8.16-19.65c-.14-.33-.25-.65-.33-.97-.09-.27-.18-.55-.28-.82h-.07c-.21,.72-.41,1.3-.61,1.75l-4.47,10.89h10.26l-4.49-10.86Z" fill="#fff"/></g></g></svg>