<?xml version="1.0" encoding="UTF-8"?><svg id="Layer_1" xmlns="http://www.w3.org/2000/svg" xmlns:xlink="http://www.w3.org/1999/xlink" viewBox="0 0 1242 825.43"><defs><linearGradient id="New_Gradient_Swatch_1" x1="449.21" y1="302.88" x2="764.89" y2="302.88" gradientUnits="userSpaceOnUse"><stop offset="0" stop-color="#91af36"/><stop offset=".16" stop-color="#8daf38"/><stop offset=".29" stop-color="#83af41"/><stop offset=".41" stop-color="#72af51"/><stop offset=".52" stop-color="#5ab066"/><stop offset=".62" stop-color="#3bb182"/><stop offset=".73" stop-color="#16b2a3"/><stop offset=".78" stop-color="#01b3b7"/></linearGradient></defs><rect y="-.89" width="1242" height="827.2"/><g><g><rect x="495.99" y="558.89" width="218.87" height="63.07" rx="17.11" ry="17.11" fill="#fff"/><g><path d="M536.39,596c1.16,.71,2.85,1.31,4.64,1.31,2.65,0,4.19-1.4,4.19-3.42,0-1.87-1.07-2.94-3.78-3.99-3.27-1.16-5.29-2.86-5.29-5.68,0-3.12,2.59-5.44,6.48-5.44,2.05,0,3.54,.48,4.43,.98l-.71,2.11c-.65-.36-1.99-.95-3.81-.95-2.74,0-3.78,1.64-3.78,3,0,1.87,1.22,2.79,3.99,3.87,3.39,1.31,5.12,2.94,5.12,5.89,0,3.09-2.29,5.77-7.02,5.77-1.93,0-4.04-.56-5.12-1.28l.65-2.17Z"/><path d="M553.99,579.11v8.39h9.7v-8.39h2.62v20.04h-2.62v-9.4h-9.7v9.4h-2.59v-20.04h2.59Z"/><path d="M587.92,588.92c0,6.9-4.19,10.56-9.31,10.56s-9.01-4.1-9.01-10.17c0-6.36,3.96-10.53,9.31-10.53s9.01,4.19,9.01,10.14Zm-15.55,.33c0,4.28,2.32,8.12,6.39,8.12s6.42-3.78,6.42-8.33c0-3.99-2.08-8.15-6.39-8.15s-6.42,3.96-6.42,8.36Z"/><path d="M591.28,579.35c1.25-.21,2.88-.39,4.97-.39,2.56,0,4.43,.59,5.62,1.67,1.1,.95,1.75,2.41,1.75,4.19s-.54,3.24-1.55,4.28c-1.37,1.46-3.6,2.2-6.13,2.2-.77,0-1.49-.03-2.08-.18v8.03h-2.59v-19.81Zm2.59,9.67c.56,.15,1.28,.21,2.14,.21,3.12,0,5.03-1.52,5.03-4.28s-1.87-3.93-4.73-3.93c-1.13,0-1.99,.09-2.44,.21v7.79Z"/><path d="M613.41,599.15v-20.04h2.83l6.42,10.14c1.49,2.35,2.65,4.46,3.6,6.51l.06-.03c-.24-2.68-.3-5.12-.3-8.24v-8.39h2.44v20.04h-2.62l-6.36-10.17c-1.4-2.23-2.74-4.52-3.75-6.69l-.09,.03c.15,2.53,.21,4.94,.21,8.27v8.57h-2.44Z"/><path d="M650.11,588.92c0,6.9-4.19,10.56-9.31,10.56s-9.01-4.1-9.01-10.17c0-6.36,3.96-10.53,9.31-10.53s9.01,4.19,9.01,10.14Zm-15.55,.33c0,4.28,2.32,8.12,6.39,8.12s6.42-3.78,6.42-8.33c0-3.99-2.08-8.15-6.39-8.15s-6.42,3.96-6.42,8.36Z"/><path d="M656.74,599.15l-5.08-20.04h2.74l2.38,10.14c.59,2.5,1.13,5,1.49,6.93h.06c.33-1.99,.95-4.37,1.64-6.96l2.68-10.11h2.71l2.44,10.17c.57,2.38,1.1,4.76,1.4,6.87h.06c.42-2.2,.98-4.43,1.61-6.93l2.65-10.11h2.65l-5.68,20.04h-2.71l-2.53-10.44c-.62-2.56-1.04-4.52-1.31-6.54h-.06c-.36,1.99-.8,3.96-1.55,6.54l-2.85,10.44h-2.71Z"/></g></g><g><path d="M444.43,435.29v-.93c1.97-.17,2.21-.38,2.21-2.55v-5.07c0-2.66-.97-4.03-3.31-4.03-1.28,.03-2.62,.69-3.52,1.83v7.28c0,2.14,.21,2.38,2.28,2.55v.93h-6.83v-.93c2.1-.17,2.34-.41,2.34-2.52v-15.86c-1.72-.17-3.45-.21-6.38-.21h-2.52v15.42c0,2.72,.28,2.97,3.35,3.14v.97h-9v-.97c3-.17,3.21-.45,3.21-3.14v-15.42h-2.17c-2.69,0-3.28,.28-3.72,1.03-.38,.55-.66,1.28-1,2.69h-1.04c.14-1.79,.31-3.93,.38-5.72h.66c.48,.69,.83,.79,1.72,.79h13.62c2.52,0,2.9-.21,2.9-.79v-.41c.48-.1,1.34-.41,2.21-.76v10.59c1.21-1.24,2.9-2.24,4.55-2.28,2.69-.1,4.55,1.66,4.55,5.45v5.52c0,2.17,.21,2.34,2.24,2.48v.93h-6.72Z" fill="#bbbaba"/><path d="M464.29,432.74c-2.07,2.38-4.17,2.93-5.17,2.93-3.83,0-6.14-3.21-6.14-6.83,0-2.17,.76-4.17,2.07-5.62,1.28-1.45,3-2.31,4.62-2.31,2.66,0,4.79,2.34,4.79,4.9,0,.72-.14,.97-.69,1.1-.52,.1-4.59,.41-8.52,.52,.03,4.34,2.59,6.14,4.79,6.14,1.34,0,2.52-.55,3.69-1.62l.55,.79Zm-8.9-6.69c1.86,.04,3.72,0,5.69-.07,.62-.04,.83-.24,.83-.69,0-1.69-1.17-3.14-2.97-3.14-1.55,0-2.97,1.34-3.55,3.9Z" fill="#bbbaba"/><path d="M490.91,435.29v-.9c1.93-.17,2.31-.34,2.31-2.59v-5.28c0-2.17-.72-3.79-2.86-3.79-1.31,0-2.59,.79-3.83,1.83,.07,.38,.1,.72,.1,1.34v6.07c0,2.03,.31,2.24,2.14,2.41v.9h-6.83v-.9c2.07-.17,2.41-.38,2.41-2.48v-5.38c0-2.38-.83-3.79-2.86-3.79-1.41,0-2.79,1.04-3.76,1.83v7.34c0,2.1,.28,2.31,1.9,2.48v.9h-6.62v-.9c2.17-.17,2.48-.38,2.48-2.48v-6.48c0-2.1-.1-2.21-2.04-2.48v-.83c1.41-.24,3-.66,4.28-1.31v2.66c.66-.48,1.38-1.1,2.45-1.72,.72-.48,1.48-.83,2.55-.83,1.48,0,2.86,.96,3.55,2.69,.97-.79,1.9-1.38,2.69-1.9,.66-.41,1.48-.79,2.45-.79,2.41,0,4.07,1.76,4.07,4.86v6.14c0,2.17,.24,2.31,2.14,2.48v.9h-6.72Z" fill="#bbbaba"/><path d="M513.39,428.05c0,5.24-3.83,7.62-6.86,7.62-4.31,0-6.97-3.52-6.97-7.07,0-5.34,4.1-7.69,6.93-7.69,3.86,0,6.9,3.14,6.9,7.14Zm-11.1-.45c0,4,1.83,6.93,4.59,6.93,2.1,0,3.79-1.59,3.79-5.83,0-3.59-1.59-6.69-4.52-6.69-2,0-3.86,1.97-3.86,5.59Z" fill="#bbbaba"/><path d="M523.88,425.12c-.59-1.93-1.66-3.17-3.21-3.17-1.28,0-2.1,.97-2.1,2.28,0,1.48,1.34,2.21,2.72,2.79,2.38,.93,4.07,2.1,4.07,4.28,0,2.9-2.72,4.38-5.28,4.38-1.62,0-3.14-.62-3.66-1.1-.24-.45-.55-2.62-.55-3.72l1-.17c.52,2.14,1.86,3.9,3.79,3.9,1.21,0,2.38-.93,2.38-2.34s-1.03-2.17-2.52-2.86c-2.1-.96-4.1-1.93-4.1-4.38,0-2.21,1.93-4.07,4.83-4.07,1.31,0,2.17,.28,2.83,.55,.28,.72,.62,2.55,.72,3.41l-.93,.24Z" fill="#bbbaba"/><path d="M533.53,435.22c-.62,.31-1.14,.45-1.48,.45-1.93,0-3-1.28-3-3.76v-9.31h-2.28l-.14-.38,.9-.93h1.52v-2.24l1.76-2.1,.48,.03v4.31h3.72c.28,.31,.21,1.03-.21,1.31h-3.52v8.17c0,2.59,1.04,3.07,1.86,3.07s1.66-.34,2.07-.55l.31,.86-2,1.07Z" fill="#bbbaba"/><path d="M550.81,421.36c.52-.31,1.14-.45,1.55-.45,3.48,0,5.66,2.83,5.66,6.07,0,4.9-3.86,7.97-8.04,8.69-.97-.07-1.83-.38-2.24-.62v4.1c0,2.41,.21,2.59,2.72,2.79v.93h-7.38v-.93c2.1-.21,2.38-.38,2.38-2.52v-14.21c0-2.14-.1-2.17-2.21-2.41v-.86c1.31-.21,3.07-.79,4.48-1.34v2.59l3.07-1.83Zm-3.07,11.45c.69,.72,1.86,1.24,3.03,1.24,2.93,0,4.79-2.38,4.79-5.93s-1.96-5.34-4.38-5.34c-1.07,0-2.52,.83-3.45,1.55v8.48Z" fill="#bbbaba"/><path d="M564.43,424.29c.96-1.59,2.31-3.38,3.93-3.38,1.14,0,1.86,.83,1.86,1.55,0,.59-.34,1.17-.97,1.48-.34,.14-.62,.1-.83-.07-.45-.48-.79-.66-1.31-.66-.9,0-2.07,1.1-2.76,3v5.66c0,2.14,.14,2.34,2.66,2.52v.9h-7.21v-.9c2.1-.17,2.31-.38,2.31-2.48v-6.48c0-2.17-.14-2.28-2.04-2.48v-.83c1.48-.24,2.83-.66,4.28-1.31v3.48h.07Z" fill="#bbbaba"/><path d="M582.64,432.74c-2.07,2.38-4.17,2.93-5.17,2.93-3.83,0-6.14-3.21-6.14-6.83,0-2.17,.76-4.17,2.07-5.62,1.28-1.45,3-2.31,4.62-2.31,2.66,0,4.79,2.34,4.79,4.9,0,.72-.14,.97-.69,1.1-.52,.1-4.59,.41-8.52,.52,.04,4.34,2.59,6.14,4.79,6.14,1.34,0,2.52-.55,3.69-1.62l.55,.79Zm-8.9-6.69c1.86,.04,3.72,0,5.69-.07,.62-.04,.83-.24,.83-.69,0-1.69-1.17-3.14-2.97-3.14-1.55,0-2.97,1.34-3.55,3.9Z" fill="#bbbaba"/><path d="M602.4,435.29v-.9c1.93-.17,2.31-.34,2.31-2.59v-5.28c0-2.17-.72-3.79-2.86-3.79-1.31,0-2.59,.79-3.83,1.83,.07,.38,.1,.72,.1,1.34v6.07c0,2.03,.31,2.24,2.14,2.41v.9h-6.83v-.9c2.07-.17,2.41-.38,2.41-2.48v-5.38c0-2.38-.83-3.79-2.86-3.79-1.41,0-2.79,1.04-3.76,1.83v7.34c0,2.1,.28,2.31,1.9,2.48v.9h-6.62v-.9c2.17-.17,2.48-.38,2.48-2.48v-6.48c0-2.1-.1-2.21-2.04-2.48v-.83c1.41-.24,3-.66,4.28-1.31v2.66c.66-.48,1.38-1.1,2.45-1.72,.72-.48,1.48-.83,2.55-.83,1.48,0,2.86,.96,3.55,2.69,.97-.79,1.9-1.38,2.69-1.9,.66-.41,1.48-.79,2.45-.79,2.41,0,4.07,1.76,4.07,4.86v6.14c0,2.17,.24,2.31,2.14,2.48v.9h-6.72Z" fill="#bbbaba"/><path d="M610.84,435.29v-.9c2.07-.17,2.31-.38,2.31-2.52v-6.59c0-1.9-.07-2.07-2.1-2.34v-.83c1.62-.28,3.03-.69,4.34-1.28v11.04c0,2.14,.24,2.34,2.31,2.52v.9h-6.86Zm1.69-18.79c0-.93,.72-1.62,1.59-1.62s1.52,.69,1.52,1.62c0,.83-.66,1.59-1.55,1.59-.83,0-1.55-.76-1.55-1.59Z" fill="#bbbaba"/><path d="M634.36,434.53c-1.45,.17-3.04,.66-4.52,1.14l-.21-.17v-2.31c-.79,.62-1.55,1.21-2.52,1.72-.93,.55-1.52,.76-2.38,.76-2.04,0-3.97-1.24-3.97-4.86v-6.03c0-1.86-.17-2-2.04-2.31v-.83c1.45-.1,2.93-.28,4.38-.59-.07,1.03-.07,2.62-.07,4.69v4.24c0,2.97,1.45,3.72,2.96,3.72,1.21,0,2.41-.55,3.62-1.66v-7.28c0-1.9-.17-2.04-2.62-2.31v-.83c1.62-.07,3.28-.21,4.9-.59v10.69c0,1.62,.28,1.79,1.52,1.86l.93,.03v.9Z" fill="#bbbaba"/><path d="M653.47,435.29v-.9c1.93-.17,2.31-.34,2.31-2.59v-5.28c0-2.17-.72-3.79-2.86-3.79-1.31,0-2.59,.79-3.83,1.83,.07,.38,.1,.72,.1,1.34v6.07c0,2.03,.31,2.24,2.14,2.41v.9h-6.83v-.9c2.07-.17,2.41-.38,2.41-2.48v-5.38c0-2.38-.83-3.79-2.86-3.79-1.41,0-2.79,1.04-3.76,1.83v7.34c0,2.1,.28,2.31,1.9,2.48v.9h-6.62v-.9c2.17-.17,2.48-.38,2.48-2.48v-6.48c0-2.1-.1-2.21-2.04-2.48v-.83c1.41-.24,3-.66,4.28-1.31v2.66c.66-.48,1.38-1.1,2.45-1.72,.72-.48,1.48-.83,2.55-.83,1.48,0,2.86,.96,3.55,2.69,.97-.79,1.9-1.38,2.69-1.9,.66-.41,1.48-.79,2.45-.79,2.41,0,4.07,1.76,4.07,4.86v6.14c0,2.17,.24,2.31,2.14,2.48v.9h-6.72Z" fill="#bbbaba"/><path d="M680.81,432.5c-1.41,1.76-3.55,3.17-5.45,3.17-4,0-6.34-3.24-6.34-6.69,0-2.52,1.07-4.62,3.21-6.28,1.59-1.24,3.48-1.79,4.72-1.79,1.38,0,2.45,.45,2.93,.86,.41,.34,.52,.59,.52,.93,0,.66-.72,1.34-1.03,1.34-.17,0-.35-.03-.59-.31-.93-.9-2.1-1.28-3.21-1.28-2.28,0-4.17,2-4.17,5.24-.03,4.41,2.93,5.86,4.86,5.86,1.34,0,2.41-.41,3.96-1.86l.59,.79Z" fill="#bbbaba"/><path d="M696.4,428.05c0,5.24-3.83,7.62-6.86,7.62-4.31,0-6.97-3.52-6.97-7.07,0-5.34,4.1-7.69,6.93-7.69,3.86,0,6.9,3.14,6.9,7.14Zm-11.1-.45c0,4,1.83,6.93,4.59,6.93,2.1,0,3.79-1.59,3.79-5.83,0-3.59-1.59-6.69-4.52-6.69-2,0-3.86,1.97-3.86,5.59Z" fill="#bbbaba"/><path d="M697.81,435.29v-.9c2.07-.17,2.38-.38,2.38-2.48v-14.9c0-2.21-.21-2.28-2.31-2.41v-.86c1.69-.21,3.55-.76,4.55-1.14v19.31c0,2.1,.28,2.31,2.38,2.48v.9h-7Z" fill="#bbbaba"/><path d="M705.78,435.29v-.9c2.07-.17,2.38-.38,2.38-2.48v-14.9c0-2.21-.21-2.28-2.31-2.41v-.86c1.69-.21,3.55-.76,4.55-1.14v19.31c0,2.1,.28,2.31,2.38,2.48v.9h-7Z" fill="#bbbaba"/><path d="M725.81,432.74c-2.07,2.38-4.17,2.93-5.17,2.93-3.83,0-6.14-3.21-6.14-6.83,0-2.17,.76-4.17,2.07-5.62,1.28-1.45,3-2.31,4.62-2.31,2.66,0,4.79,2.34,4.79,4.9,0,.72-.14,.97-.69,1.1-.52,.1-4.59,.41-8.52,.52,.04,4.34,2.59,6.14,4.79,6.14,1.34,0,2.52-.55,3.69-1.62l.55,.79Zm-8.9-6.69c1.86,.04,3.72,0,5.69-.07,.62-.04,.83-.24,.83-.69,0-1.69-1.17-3.14-2.97-3.14-1.55,0-2.97,1.34-3.55,3.9Z" fill="#bbbaba"/><path d="M739.88,432.5c-1.41,1.76-3.55,3.17-5.45,3.17-4,0-6.34-3.24-6.34-6.69,0-2.52,1.07-4.62,3.21-6.28,1.59-1.24,3.48-1.79,4.72-1.79,1.38,0,2.45,.45,2.93,.86,.41,.34,.52,.59,.52,.93,0,.66-.72,1.34-1.03,1.34-.17,0-.35-.03-.59-.31-.93-.9-2.1-1.28-3.21-1.28-2.28,0-4.17,2-4.17,5.24-.03,4.41,2.93,5.86,4.86,5.86,1.34,0,2.41-.41,3.96-1.86l.59,.79Z" fill="#bbbaba"/><path d="M748.09,435.22c-.62,.31-1.14,.45-1.48,.45-1.93,0-3-1.28-3-3.76v-9.31h-2.28l-.14-.38,.9-.93h1.52v-2.24l1.76-2.1,.48,.03v4.31h3.72c.28,.31,.21,1.03-.21,1.31h-3.52v8.17c0,2.59,1.04,3.07,1.86,3.07s1.66-.34,2.07-.55l.31,.86-2,1.07Z" fill="#bbbaba"/><path d="M751.5,435.29v-.9c2.07-.17,2.31-.38,2.31-2.52v-6.59c0-1.9-.07-2.07-2.1-2.34v-.83c1.62-.28,3.03-.69,4.34-1.28v11.04c0,2.14,.24,2.34,2.31,2.52v.9h-6.86Zm1.69-18.79c0-.93,.72-1.62,1.59-1.62s1.52,.69,1.52,1.62c0,.83-.66,1.59-1.55,1.59-.83,0-1.55-.76-1.55-1.59Z" fill="#bbbaba"/><path d="M773.95,428.05c0,5.24-3.83,7.62-6.86,7.62-4.31,0-6.97-3.52-6.97-7.07,0-5.34,4.1-7.69,6.93-7.69,3.86,0,6.9,3.14,6.9,7.14Zm-11.1-.45c0,4,1.83,6.93,4.59,6.93,2.1,0,3.79-1.59,3.79-5.83,0-3.59-1.59-6.69-4.52-6.69-2,0-3.86,1.97-3.86,5.59Z" fill="#bbbaba"/><path d="M784.85,435.29v-.9c1.97-.21,2.21-.48,2.21-2.62v-5.28c0-2.24-.76-3.76-3.03-3.76-1.38,0-2.72,.86-3.72,1.79v7.35c0,2.24,.17,2.31,2.21,2.52v.9h-6.79v-.9c2.17-.21,2.35-.41,2.35-2.48v-6.48c0-2.07-.21-2.21-1.97-2.48v-.83c1.52-.28,2.97-.66,4.21-1.31v2.55c.62-.48,1.31-.93,2.14-1.45,.86-.59,1.79-1,2.72-1,2.52,0,4.14,1.76,4.14,4.83v6.14c0,2.21,.17,2.31,2.1,2.52v.9h-6.55Z" fill="#bbbaba"/><path d="M814.06,428.05c0,5.24-3.83,7.62-6.86,7.62-4.31,0-6.97-3.52-6.97-7.07,0-5.34,4.1-7.69,6.93-7.69,3.86,0,6.9,3.14,6.9,7.14Zm-11.1-.45c0,4,1.83,6.93,4.59,6.93,2.1,0,3.79-1.59,3.79-5.83,0-3.59-1.59-6.69-4.52-6.69-2,0-3.86,1.97-3.86,5.59Z" fill="#bbbaba"/><path d="M818.5,421.29v-.55c0-.97,.14-2,.31-2.66,.28-.72,.76-2.28,2.41-3.76,1.14-.97,2.34-1.55,3.52-1.72,1.07,.07,2.03,.48,2.55,1.14,.24,.34,.28,.76,.14,1.1-.1,.24-.24,.48-.55,.69-.28,.24-.55,.24-.86-.07-.55-.52-1.48-1.1-2.55-1.1-.86,0-1.38,.38-1.83,.97-.41,.59-.86,2.14-.86,4.86v1.1h3.79c.21,.28,.03,1.07-.31,1.31h-3.48v9.17c0,2.31,.21,2.41,2.76,2.66v.86h-7.35v-.9c2.07-.17,2.31-.38,2.31-2.41v-9.38h-2.24l-.17-.34,.86-.97h1.55Z" fill="#bbbaba"/><path d="M429.82,476.67v-1c2.66-.21,2.72-.38,2.72-3.9l-.14-12.93h-.07l-7.9,17.59h-.66l-7.17-17.1h-.07l-.45,9.17c-.14,2.76-.17,4.03-.14,5.24,.07,1.48,.9,1.72,3,1.9v1.03h-7.55v-1.03c1.86-.17,2.48-.48,2.72-1.9,.17-1.07,.38-2.41,.59-5.79l.45-6.59c.28-4.07,.17-4.14-2.76-4.41v-.97h5.1l7.31,16.1,7.55-16.1h5.38v.97c-2.86,.28-3.1,.24-3,3.72l.31,11.1c.1,3.52,.21,3.69,3.03,3.9v1h-8.28Z" fill="#bbbaba"/><path d="M449.65,477.05c-.38,0-1.07-.28-1.38-.59-.45-.45-.66-.9-.76-1.45-1.34,.86-2.83,2.03-3.93,2.03-2.17,0-3.76-1.86-3.76-3.93,0-1.52,.83-2.62,2.66-3.21,1.93-.66,4.28-1.55,4.97-2.07v-.45c0-2.34-1.17-3.66-2.83-3.66-.69,0-1.21,.28-1.52,.66-.41,.45-.66,1.1-.97,2.03-.1,.48-.45,.69-.9,.69-.52,0-1.31-.59-1.31-1.34,0-.45,.41-.83,1.04-1.28,.79-.59,2.83-1.83,4.69-2.21,.93,0,1.93,.28,2.59,.86,1.03,.93,1.38,2.21,1.38,3.83v6.04c0,1.45,.55,1.93,1.14,1.93,.38,0,.86-.17,1.17-.38l.34,.93-2.62,1.55Zm-2.21-8.07l-3.14,1.41c-1.31,.55-2.03,1.17-2.03,2.34,0,1.62,1.31,2.41,2.34,2.41,.9,0,2.21-.69,2.83-1.28v-4.9Z" fill="#bbbaba"/><path d="M452.96,476.67v-.9c2.07-.17,2.38-.38,2.38-2.48v-14.9c0-2.21-.21-2.28-2.31-2.41v-.86c1.69-.21,3.55-.76,4.55-1.14v19.31c0,2.1,.28,2.31,2.38,2.48v.9h-7Z" fill="#bbbaba"/><path d="M476.93,475.84c-.69,.14-3.03,.55-4.79,1.21v-2.1l-1.97,1.14c-1.31,.76-2.28,.96-2.62,.96-2.55,0-5.83-2.34-5.83-6.83s3.93-7.93,8.17-7.93c.48,0,1.55,.1,2.24,.41v-4.38c0-2.14-.14-2.21-2.55-2.35v-.86c1.62-.24,3.72-.76,4.83-1.14v19c0,1.62,.24,1.79,1.41,1.86l1.1,.1v.9Zm-4.79-10.69c-.86-1.1-2.24-1.59-3.45-1.59-1.59,0-4.34,1.28-4.34,5.79,0,3.76,2.31,5.69,4.48,5.69,1.21,0,2.48-.62,3.31-1.17v-8.72Z" fill="#bbbaba"/><path d="M478.24,476.67v-.9c2.07-.17,2.31-.38,2.31-2.52v-6.59c0-1.9-.07-2.07-2.1-2.34v-.83c1.62-.28,3.03-.69,4.34-1.28v11.04c0,2.14,.24,2.34,2.31,2.52v.9h-6.86Zm1.69-18.79c0-.93,.72-1.62,1.59-1.62s1.52,.69,1.52,1.62c0,.83-.66,1.59-1.55,1.59-.83,0-1.55-.76-1.55-1.59Z" fill="#bbbaba"/><path d="M500.72,463.57c-1.76,.17-2.04,.48-2.86,2.38-1.1,2.45-2.72,6.28-4.52,11.04h-.9c-1.38-3.79-2.83-7.35-4.38-11.1-.76-1.86-1-2.1-2.72-2.31v-.9h6.35v.9c-1.79,.17-1.86,.41-1.28,1.83,.79,2.21,2.14,5.62,3.1,8.04,1.17-2.83,2.21-5.69,2.9-7.69,.55-1.62,.31-1.97-1.48-2.17v-.9h5.79v.9Z" fill="#bbbaba"/><path d="M501.24,476.67v-.9c2.07-.17,2.31-.38,2.31-2.52v-6.59c0-1.9-.07-2.07-2.1-2.34v-.83c1.62-.28,3.03-.69,4.34-1.28v11.04c0,2.14,.24,2.34,2.31,2.52v.9h-6.86Zm1.69-18.79c0-.93,.72-1.62,1.59-1.62s1.52,.69,1.52,1.62c0,.83-.66,1.59-1.55,1.59-.83,0-1.55-.76-1.55-1.59Z" fill="#bbbaba"/><path d="M519.79,477.05c-.38,0-1.07-.28-1.38-.59-.45-.45-.66-.9-.76-1.45-1.34,.86-2.83,2.03-3.93,2.03-2.17,0-3.76-1.86-3.76-3.93,0-1.52,.83-2.62,2.66-3.21,1.93-.66,4.28-1.55,4.97-2.07v-.45c0-2.34-1.17-3.66-2.83-3.66-.69,0-1.21,.28-1.52,.66-.41,.45-.66,1.1-.97,2.03-.1,.48-.45,.69-.9,.69-.52,0-1.31-.59-1.31-1.34,0-.45,.41-.83,1.04-1.28,.79-.59,2.83-1.83,4.69-2.21,.93,0,1.93,.28,2.59,.86,1.03,.93,1.38,2.21,1.38,3.83v6.04c0,1.45,.55,1.93,1.14,1.93,.38,0,.86-.17,1.17-.38l.34,.93-2.62,1.55Zm-2.21-8.07l-3.14,1.41c-1.31,.55-2.03,1.17-2.03,2.34,0,1.62,1.31,2.41,2.34,2.41,.9,0,2.21-.69,2.83-1.28v-4.9Z" fill="#bbbaba"/><path d="M532.41,476.67v-.9c1.97-.21,2.21-.48,2.21-2.62v-5.28c0-2.24-.76-3.76-3.03-3.76-1.38,0-2.72,.86-3.72,1.79v7.35c0,2.24,.17,2.31,2.21,2.52v.9h-6.79v-.9c2.17-.21,2.35-.41,2.35-2.48v-6.48c0-2.07-.21-2.21-1.97-2.48v-.83c1.52-.28,2.97-.66,4.21-1.31v2.55c.62-.48,1.31-.93,2.14-1.45,.86-.59,1.79-1,2.72-1,2.52,0,4.14,1.76,4.14,4.83v6.14c0,2.21,.17,2.31,2.1,2.52v.9h-6.55Z" fill="#bbbaba"/><path d="M558.45,460.88c-.52-1.97-1.21-4.17-4.03-4.17-2.55,0-3.55,1.9-3.55,3.48,0,2.41,1.59,3.45,4,4.69,2.31,1.14,5.55,2.52,5.55,6.21,0,3.41-2.83,6-6.97,6-1.34,0-2.38-.28-3.14-.52-.72-.21-1.21-.48-1.48-.62-.28-.72-.66-3.28-.86-4.9l1-.24c.52,1.93,1.79,5.07,5.07,5.07,2.48,0,3.9-1.52,3.9-3.86s-1.79-3.48-4.17-4.76c-1.86-1-5.21-2.41-5.21-6.07,0-3.04,2.41-5.62,6.45-5.62,1.24,0,2.48,.24,3.97,.72,.1,1.14,.28,2.35,.52,4.45l-1.04,.14Z" fill="#bbbaba"/><path d="M577.03,469.43c0,5.24-3.83,7.62-6.86,7.62-4.31,0-6.97-3.52-6.97-7.07,0-5.34,4.1-7.69,6.93-7.69,3.86,0,6.9,3.14,6.9,7.14Zm-11.1-.45c0,4,1.83,6.93,4.59,6.93,2.1,0,3.79-1.59,3.79-5.83,0-3.59-1.59-6.69-4.52-6.69-2,0-3.86,1.97-3.86,5.59Z" fill="#bbbaba"/><path d="M594.34,475.91c-1.45,.17-3.03,.66-4.52,1.14l-.21-.17v-2.31c-.79,.62-1.55,1.21-2.52,1.72-.93,.55-1.52,.76-2.38,.76-2.04,0-3.97-1.24-3.97-4.86v-6.03c0-1.86-.17-2-2.04-2.31v-.83c1.45-.1,2.93-.28,4.38-.59-.07,1.03-.07,2.62-.07,4.69v4.24c0,2.97,1.45,3.72,2.97,3.72,1.21,0,2.41-.55,3.62-1.66v-7.28c0-1.9-.17-2.04-2.62-2.31v-.83c1.62-.07,3.28-.21,4.9-.59v10.69c0,1.62,.28,1.79,1.52,1.86l.93,.03v.9Z" fill="#bbbaba"/><path d="M609.79,463.57c-1.76,.17-2.04,.48-2.86,2.38-1.1,2.45-2.72,6.28-4.52,11.04h-.9c-1.38-3.79-2.83-7.35-4.38-11.1-.76-1.86-1-2.1-2.72-2.31v-.9h6.35v.9c-1.79,.17-1.86,.41-1.28,1.83,.79,2.21,2.14,5.62,3.1,8.04,1.17-2.83,2.21-5.69,2.9-7.69,.55-1.62,.31-1.97-1.48-2.17v-.9h5.79v.9Z" fill="#bbbaba"/><path d="M621.55,474.12c-2.07,2.38-4.17,2.93-5.17,2.93-3.83,0-6.14-3.21-6.14-6.83,0-2.17,.76-4.17,2.07-5.62,1.28-1.45,3-2.31,4.62-2.31,2.66,0,4.79,2.34,4.79,4.9,0,.72-.14,.97-.69,1.1-.52,.1-4.59,.41-8.52,.52,.03,4.34,2.59,6.14,4.79,6.14,1.34,0,2.52-.55,3.69-1.62l.55,.79Zm-8.9-6.69c1.86,.04,3.72,0,5.69-.07,.62-.04,.83-.24,.83-.69,0-1.69-1.17-3.14-2.97-3.14-1.55,0-2.97,1.34-3.55,3.9Z" fill="#bbbaba"/><path d="M632.69,476.67v-.9c1.97-.21,2.21-.48,2.21-2.62v-5.28c0-2.24-.76-3.76-3.03-3.76-1.38,0-2.72,.86-3.72,1.79v7.35c0,2.24,.17,2.31,2.21,2.52v.9h-6.79v-.9c2.17-.21,2.35-.41,2.35-2.48v-6.48c0-2.07-.21-2.21-1.97-2.48v-.83c1.52-.28,2.97-.66,4.21-1.31v2.55c.62-.48,1.31-.93,2.14-1.45,.86-.59,1.79-1,2.72-1,2.52,0,4.14,1.76,4.14,4.83v6.14c0,2.21,.17,2.31,2.1,2.52v.9h-6.55Z" fill="#bbbaba"/><path d="M641,476.67v-.9c2.07-.17,2.31-.38,2.31-2.52v-6.59c0-1.9-.07-2.07-2.1-2.34v-.83c1.62-.28,3.03-.69,4.34-1.28v11.04c0,2.14,.24,2.34,2.31,2.52v.9h-6.86Zm1.69-18.79c0-.93,.72-1.62,1.59-1.62s1.52,.69,1.52,1.62c0,.83-.66,1.59-1.55,1.59-.83,0-1.55-.76-1.55-1.59Z" fill="#bbbaba"/><path d="M654.04,465.67c.96-1.59,2.31-3.38,3.93-3.38,1.14,0,1.86,.83,1.86,1.55,0,.59-.34,1.17-.97,1.48-.34,.14-.62,.1-.83-.07-.45-.48-.79-.66-1.31-.66-.9,0-2.07,1.1-2.76,3v5.66c0,2.14,.14,2.34,2.66,2.52v.9h-7.21v-.9c2.1-.17,2.31-.38,2.31-2.48v-6.48c0-2.17-.14-2.28-2.04-2.48v-.83c1.48-.24,2.83-.66,4.28-1.31v3.48h.07Z" fill="#bbbaba"/><path d="M669.14,466.5c-.59-1.93-1.66-3.17-3.21-3.17-1.28,0-2.1,.97-2.1,2.28,0,1.48,1.34,2.21,2.72,2.79,2.38,.93,4.07,2.1,4.07,4.28,0,2.9-2.72,4.38-5.28,4.38-1.62,0-3.14-.62-3.66-1.1-.24-.45-.55-2.62-.55-3.72l1-.17c.52,2.14,1.86,3.9,3.79,3.9,1.21,0,2.38-.93,2.38-2.34s-1.03-2.17-2.52-2.86c-2.1-.96-4.1-1.93-4.1-4.38,0-2.21,1.93-4.07,4.83-4.07,1.31,0,2.17,.28,2.83,.55,.28,.72,.62,2.55,.72,3.41l-.93,.24Z" fill="#bbbaba"/><path d="M689.59,477.05c-.38,0-1.07-.28-1.38-.59-.45-.45-.66-.9-.76-1.45-1.34,.86-2.83,2.03-3.93,2.03-2.17,0-3.76-1.86-3.76-3.93,0-1.52,.83-2.62,2.66-3.21,1.93-.66,4.28-1.55,4.97-2.07v-.45c0-2.34-1.17-3.66-2.83-3.66-.69,0-1.21,.28-1.52,.66-.41,.45-.66,1.1-.97,2.03-.1,.48-.45,.69-.9,.69-.52,0-1.31-.59-1.31-1.34,0-.45,.41-.83,1.04-1.28,.79-.59,2.83-1.83,4.69-2.21,.93,0,1.93,.28,2.59,.86,1.03,.93,1.38,2.21,1.38,3.83v6.04c0,1.45,.55,1.93,1.14,1.93,.38,0,.86-.17,1.17-.38l.34,.93-2.62,1.55Zm-2.21-8.07l-3.14,1.41c-1.31,.55-2.03,1.17-2.03,2.34,0,1.62,1.31,2.41,2.34,2.41,.9,0,2.21-.69,2.83-1.28v-4.9Z" fill="#bbbaba"/><path d="M707.14,463.57c-1.76,.17-2.04,.48-2.86,2.38-1.1,2.45-2.72,6.28-4.52,11.04h-.9c-1.38-3.79-2.83-7.35-4.38-11.1-.76-1.86-1-2.1-2.72-2.31v-.9h6.35v.9c-1.79,.17-1.86,.41-1.28,1.83,.79,2.21,2.14,5.62,3.1,8.04,1.17-2.83,2.21-5.69,2.9-7.69,.55-1.62,.31-1.97-1.48-2.17v-.9h5.79v.9Z" fill="#bbbaba"/><path d="M717.8,477.05c-.38,0-1.07-.28-1.38-.59-.45-.45-.66-.9-.76-1.45-1.34,.86-2.83,2.03-3.93,2.03-2.17,0-3.76-1.86-3.76-3.93,0-1.52,.83-2.62,2.66-3.21,1.93-.66,4.28-1.55,4.97-2.07v-.45c0-2.34-1.17-3.66-2.83-3.66-.69,0-1.21,.28-1.52,.66-.41,.45-.66,1.1-.97,2.03-.1,.48-.45,.69-.9,.69-.52,0-1.31-.59-1.31-1.34,0-.45,.41-.83,1.04-1.28,.79-.59,2.83-1.83,4.69-2.21,.93,0,1.93,.28,2.59,.86,1.03,.93,1.38,2.21,1.38,3.83v6.04c0,1.45,.55,1.93,1.14,1.93,.38,0,.86-.17,1.17-.38l.34,.93-2.62,1.55Zm-2.21-8.07l-3.14,1.41c-1.31,.55-2.03,1.17-2.03,2.34,0,1.62,1.31,2.41,2.34,2.41,.9,0,2.21-.69,2.83-1.28v-4.9Z" fill="#bbbaba"/><path d="M721.31,476.67v-.9c2.07-.17,2.31-.38,2.31-2.52v-6.59c0-1.9-.07-2.07-2.1-2.34v-.83c1.62-.28,3.03-.69,4.34-1.28v11.04c0,2.14,.24,2.34,2.31,2.52v.9h-6.86Zm1.69-18.79c0-.93,.72-1.62,1.59-1.62s1.52,.69,1.52,1.62c0,.83-.66,1.59-1.55,1.59-.83,0-1.55-.76-1.55-1.59Z" fill="#bbbaba"/><path d="M729.21,476.67v-.9c2.07-.17,2.38-.38,2.38-2.48v-14.9c0-2.21-.21-2.28-2.31-2.41v-.86c1.69-.21,3.55-.76,4.55-1.14v19.31c0,2.1,.28,2.31,2.38,2.48v.9h-7Z" fill="#bbbaba"/><path d="M747.83,477.05c-.38,0-1.07-.28-1.38-.59-.45-.45-.66-.9-.76-1.45-1.34,.86-2.83,2.03-3.93,2.03-2.17,0-3.76-1.86-3.76-3.93,0-1.52,.83-2.62,2.66-3.21,1.93-.66,4.28-1.55,4.97-2.07v-.45c0-2.34-1.17-3.66-2.83-3.66-.69,0-1.21,.28-1.52,.66-.41,.45-.66,1.1-.97,2.03-.1,.48-.45,.69-.9,.69-.52,0-1.31-.59-1.31-1.34,0-.45,.41-.83,1.04-1.28,.79-.59,2.83-1.83,4.69-2.21,.93,0,1.93,.28,2.59,.86,1.03,.93,1.38,2.21,1.38,3.83v6.04c0,1.45,.55,1.93,1.14,1.93,.38,0,.86-.17,1.17-.38l.34,.93-2.62,1.55Zm-2.21-8.07l-3.14,1.41c-1.31,.55-2.03,1.17-2.03,2.34,0,1.62,1.31,2.41,2.34,2.41,.9,0,2.21-.69,2.83-1.28v-4.9Z" fill="#bbbaba"/><path d="M758.07,462.57c.45-.21,.86-.28,1.21-.28,3.34,0,6.28,2.9,6.28,6.72,0,4.72-3.83,8.03-8.04,8.03-1.24,0-2.86-.34-4.52-1.17v-17.62c0-1.97-.07-2.17-2.17-2.31v-.83c1.45-.21,3.35-.69,4.41-1.14v9.76l2.83-1.17Zm-2.83,10.31c0,.52,.07,.83,.21,1.1,.21,.62,1.21,1.72,3,1.72,2.76,0,4.55-2.21,4.55-5.9s-2.31-5.72-5-5.72c-.93,0-2.1,.31-2.76,.69v8.1Z" fill="#bbbaba"/><path d="M766.97,476.67v-.9c2.07-.17,2.38-.38,2.38-2.48v-14.9c0-2.21-.21-2.28-2.31-2.41v-.86c1.69-.21,3.55-.76,4.55-1.14v19.31c0,2.1,.28,2.31,2.38,2.48v.9h-7Z" fill="#bbbaba"/><path d="M787,474.12c-2.07,2.38-4.17,2.93-5.17,2.93-3.83,0-6.14-3.21-6.14-6.83,0-2.17,.76-4.17,2.07-5.62,1.28-1.45,3-2.31,4.62-2.31,2.66,0,4.79,2.34,4.79,4.9,0,.72-.14,.97-.69,1.1-.52,.1-4.59,.41-8.52,.52,.03,4.34,2.59,6.14,4.79,6.14,1.34,0,2.52-.55,3.69-1.62l.55,.79Zm-8.9-6.69c1.86,.04,3.72,0,5.69-.07,.62-.04,.83-.24,.83-.69,0-1.69-1.17-3.14-2.97-3.14-1.55,0-2.97,1.34-3.55,3.9Z" fill="#bbbaba"/><path d="M798.14,462.67v-.55c0-.97,.14-2,.31-2.66,.28-.72,.76-2.28,2.41-3.76,1.14-.97,2.34-1.55,3.52-1.72,1.07,.07,2.03,.48,2.55,1.14,.24,.34,.28,.76,.14,1.1-.1,.24-.24,.48-.55,.69-.28,.24-.55,.24-.86-.07-.55-.52-1.48-1.1-2.55-1.1-.86,0-1.38,.38-1.83,.97-.41,.59-.86,2.14-.86,4.86v1.1h3.79c.21,.28,.03,1.07-.31,1.31h-3.48v9.17c0,2.31,.21,2.41,2.76,2.66v.86h-7.35v-.9c2.07-.17,2.31-.38,2.31-2.41v-9.38h-2.24l-.17-.34,.86-.97h1.55Z" fill="#bbbaba"/><path d="M818.93,469.43c0,5.24-3.83,7.62-6.86,7.62-4.31,0-6.97-3.52-6.97-7.07,0-5.34,4.1-7.69,6.93-7.69,3.86,0,6.9,3.14,6.9,7.14Zm-11.1-.45c0,4,1.83,6.93,4.59,6.93,2.1,0,3.79-1.59,3.79-5.83,0-3.59-1.59-6.69-4.52-6.69-2,0-3.86,1.97-3.86,5.59Z" fill="#bbbaba"/><path d="M825.35,465.67c.96-1.59,2.31-3.38,3.93-3.38,1.14,0,1.86,.83,1.86,1.55,0,.59-.34,1.17-.97,1.48-.34,.14-.62,.1-.83-.07-.45-.48-.79-.66-1.31-.66-.9,0-2.07,1.1-2.76,3v5.66c0,2.14,.14,2.34,2.66,2.52v.9h-7.21v-.9c2.1-.17,2.31-.38,2.31-2.48v-6.48c0-2.17-.14-2.28-2.04-2.48v-.83c1.48-.24,2.83-.66,4.28-1.31v3.48h.07Z" fill="#bbbaba"/><path d="M476.69,507.43c0,6.93-4.79,11.04-10.62,11.04s-10.21-4.35-10.21-10.52c0-5.83,4.04-11,10.62-11,5.28,0,10.21,4.03,10.21,10.48Zm-17.86-.41c0,6,3.45,10.21,7.97,10.21,3.59,0,6.86-2.79,6.86-8.97,0-6.76-3.72-10.07-7.9-10.07-3.52,0-6.93,2.76-6.93,8.83Z" fill="#bbbaba"/><path d="M483.69,507.05c.96-1.59,2.31-3.38,3.93-3.38,1.14,0,1.86,.83,1.86,1.55,0,.59-.34,1.17-.97,1.48-.34,.14-.62,.1-.83-.07-.45-.48-.79-.66-1.31-.66-.9,0-2.07,1.1-2.76,3v5.66c0,2.14,.14,2.34,2.66,2.52v.9h-7.21v-.9c2.1-.17,2.31-.38,2.31-2.48v-6.48c0-2.17-.14-2.28-2.04-2.48v-.83c1.48-.24,2.83-.66,4.28-1.31v3.48h.07Z" fill="#bbbaba"/><path d="M505.83,517.22c-.69,.14-3.04,.55-4.79,1.21v-2.1l-1.97,1.14c-1.31,.76-2.28,.96-2.62,.96-2.55,0-5.83-2.34-5.83-6.83s3.93-7.93,8.17-7.93c.48,0,1.55,.1,2.24,.41v-4.38c0-2.14-.14-2.21-2.55-2.34v-.86c1.62-.24,3.72-.76,4.83-1.14v19c0,1.62,.24,1.79,1.41,1.86l1.1,.1v.9Zm-4.79-10.69c-.86-1.1-2.24-1.59-3.45-1.59-1.59,0-4.34,1.28-4.34,5.79,0,3.76,2.31,5.69,4.48,5.69,1.21,0,2.48-.62,3.31-1.17v-8.72Z" fill="#bbbaba"/><path d="M518.69,515.5c-2.07,2.38-4.17,2.93-5.17,2.93-3.83,0-6.14-3.21-6.14-6.83,0-2.17,.76-4.17,2.07-5.62,1.28-1.45,3-2.31,4.62-2.31,2.66,0,4.79,2.34,4.79,4.9,0,.72-.14,.97-.69,1.1-.52,.1-4.59,.41-8.52,.52,.04,4.34,2.59,6.14,4.79,6.14,1.34,0,2.52-.55,3.69-1.62l.55,.79Zm-8.9-6.69c1.86,.04,3.72,0,5.69-.07,.62-.04,.83-.24,.83-.69,0-1.69-1.17-3.14-2.97-3.14-1.55,0-2.97,1.34-3.55,3.9Z" fill="#bbbaba"/><path d="M525.34,507.05c.96-1.59,2.31-3.38,3.93-3.38,1.14,0,1.86,.83,1.86,1.55,0,.59-.34,1.17-.97,1.48-.34,.14-.62,.1-.83-.07-.45-.48-.79-.66-1.31-.66-.9,0-2.07,1.1-2.76,3v5.66c0,2.14,.14,2.34,2.66,2.52v.9h-7.21v-.9c2.1-.17,2.31-.38,2.31-2.48v-6.48c0-2.17-.14-2.28-2.04-2.48v-.83c1.48-.24,2.83-.66,4.28-1.31v3.48h.07Z" fill="#bbbaba"/><path d="M541.52,504.05v-.55c0-.97,.14-2,.31-2.66,.28-.72,.76-2.28,2.41-3.76,1.14-.97,2.34-1.55,3.52-1.72,1.07,.07,2.03,.48,2.55,1.14,.24,.34,.28,.76,.14,1.1-.1,.24-.24,.48-.55,.69-.28,.24-.55,.24-.86-.07-.55-.52-1.48-1.1-2.55-1.1-.86,0-1.38,.38-1.83,.97-.41,.59-.86,2.14-.86,4.86v1.1h3.79c.21,.28,.03,1.07-.31,1.31h-3.48v9.17c0,2.31,.21,2.41,2.76,2.66v.86h-7.35v-.9c2.07-.17,2.31-.38,2.31-2.41v-9.38h-2.24l-.17-.34,.86-.97h1.55Z" fill="#bbbaba"/><path d="M553.55,507.05c.96-1.59,2.31-3.38,3.93-3.38,1.14,0,1.86,.83,1.86,1.55,0,.59-.34,1.17-.97,1.48-.34,.14-.62,.1-.83-.07-.45-.48-.79-.66-1.31-.66-.9,0-2.07,1.1-2.76,3v5.66c0,2.14,.14,2.34,2.66,2.52v.9h-7.21v-.9c2.1-.17,2.31-.38,2.31-2.48v-6.48c0-2.17-.14-2.28-2.04-2.48v-.83c1.48-.24,2.83-.66,4.28-1.31v3.48h.07Z" fill="#bbbaba"/><path d="M574.24,510.81c0,5.24-3.83,7.62-6.86,7.62-4.31,0-6.97-3.52-6.97-7.07,0-5.34,4.1-7.69,6.93-7.69,3.86,0,6.9,3.14,6.9,7.14Zm-11.1-.45c0,4,1.83,6.93,4.59,6.93,2.1,0,3.79-1.59,3.79-5.83,0-3.59-1.59-6.69-4.52-6.69-2,0-3.86,1.96-3.86,5.59Z" fill="#bbbaba"/><path d="M593.76,518.05v-.9c1.93-.17,2.31-.34,2.31-2.59v-5.28c0-2.17-.72-3.79-2.86-3.79-1.31,0-2.59,.79-3.83,1.83,.07,.38,.1,.72,.1,1.34v6.07c0,2.03,.31,2.24,2.14,2.41v.9h-6.83v-.9c2.07-.17,2.41-.38,2.41-2.48v-5.38c0-2.38-.83-3.79-2.86-3.79-1.41,0-2.79,1.04-3.76,1.83v7.34c0,2.1,.28,2.31,1.9,2.48v.9h-6.62v-.9c2.17-.17,2.48-.38,2.48-2.48v-6.48c0-2.1-.1-2.21-2.04-2.48v-.83c1.41-.24,3-.66,4.28-1.31v2.66c.66-.48,1.38-1.1,2.45-1.72,.72-.48,1.48-.83,2.55-.83,1.48,0,2.86,.96,3.55,2.69,.97-.79,1.9-1.38,2.69-1.9,.66-.41,1.48-.79,2.45-.79,2.41,0,4.07,1.76,4.07,4.86v6.14c0,2.17,.24,2.31,2.14,2.48v.9h-6.72Z" fill="#bbbaba"/><path d="M614.55,505.95c.66-.31,1.38-.48,2.04-.48,3.41,0,5.69,2.66,5.69,5.97,0,3.79-2.72,7-6.41,7s-6.48-3.14-6.48-7.93c0-7.04,4.9-10.66,8.24-11.86,1.24-.48,2.62-.76,3.93-1.03l.24,1.1c-1.03,.17-2.31,.55-3.48,1.14-2.03,.93-5.03,2.9-5.97,7.24l2.21-1.14Zm-2.38,2.24c-.21,.62-.24,1.24-.24,2.1,0,3.76,1.59,7,4.48,7,2.48,0,3.38-2.62,3.38-4.83,0-2.55-1.31-5.21-4.38-5.21-1.31,0-2.52,.52-3.24,.93Z" fill="#bbbaba"/><path d="M637.59,509.39c0,4.07-1.76,9.03-6.41,9.03s-6.45-4.41-6.45-9.03c0-4.04,1.72-8.97,6.45-8.97s6.41,4.59,6.41,8.97Zm-10.31,0c0,3.79,1,7.9,3.93,7.9s3.76-4.07,3.76-7.9-.83-7.86-3.79-7.86-3.9,4.04-3.9,7.86Z" fill="#bbbaba"/><path d="M649.24,510.53v7.52h-1.83v-7.52h-6.9v-1.62h6.9v-6.79h1.83v6.79h6.86v1.62h-6.86Z" fill="#bbbaba"/><path d="M665.14,518.05v-.9c2.07-.17,2.38-.38,2.38-2.48v-14.9c0-2.21-.21-2.28-2.31-2.41v-.86c1.69-.21,3.55-.76,4.55-1.14v19.31c0,2.1,.28,2.31,2.38,2.48v.9h-7Z" fill="#bbbaba"/><path d="M687.66,510.81c0,5.24-3.83,7.62-6.86,7.62-4.31,0-6.97-3.52-6.97-7.07,0-5.34,4.1-7.69,6.93-7.69,3.86,0,6.9,3.14,6.9,7.14Zm-11.1-.45c0,4,1.83,6.93,4.59,6.93,2.1,0,3.79-1.59,3.79-5.83,0-3.59-1.59-6.69-4.52-6.69-2,0-3.86,1.96-3.86,5.59Z" fill="#bbbaba"/><path d="M702.17,515.26c-1.41,1.76-3.55,3.17-5.45,3.17-4,0-6.34-3.24-6.34-6.69,0-2.52,1.07-4.62,3.21-6.28,1.59-1.24,3.48-1.79,4.72-1.79,1.38,0,2.45,.45,2.93,.86,.41,.35,.52,.59,.52,.93,0,.66-.72,1.34-1.03,1.34-.17,0-.34-.03-.59-.31-.93-.9-2.1-1.28-3.21-1.28-2.28,0-4.17,2-4.17,5.24-.03,4.41,2.93,5.86,4.86,5.86,1.35,0,2.41-.41,3.97-1.86l.59,.79Z" fill="#bbbaba"/><path d="M713.86,518.43c-.38,0-1.07-.28-1.38-.59-.45-.45-.66-.9-.76-1.45-1.34,.86-2.83,2.03-3.93,2.03-2.17,0-3.76-1.86-3.76-3.93,0-1.52,.83-2.62,2.66-3.21,1.93-.66,4.28-1.55,4.97-2.07v-.45c0-2.34-1.17-3.66-2.83-3.66-.69,0-1.21,.28-1.52,.66-.41,.45-.66,1.1-.97,2.03-.1,.48-.45,.69-.9,.69-.52,0-1.31-.59-1.31-1.34,0-.45,.41-.83,1.04-1.28,.79-.59,2.83-1.83,4.69-2.21,.93,0,1.93,.28,2.59,.86,1.03,.93,1.38,2.21,1.38,3.83v6.04c0,1.45,.55,1.93,1.14,1.93,.38,0,.86-.17,1.17-.38l.34,.93-2.62,1.55Zm-2.21-8.07l-3.14,1.41c-1.31,.55-2.03,1.17-2.03,2.34,0,1.62,1.31,2.41,2.34,2.41,.9,0,2.21-.69,2.83-1.28v-4.9Z" fill="#bbbaba"/><path d="M723.48,517.98c-.62,.31-1.14,.45-1.48,.45-1.93,0-3-1.28-3-3.76v-9.31h-2.28l-.14-.38,.9-.93h1.52v-2.24l1.76-2.1,.48,.03v4.31h3.72c.28,.31,.21,1.04-.21,1.31h-3.52v8.17c0,2.59,1.04,3.07,1.86,3.07s1.66-.34,2.07-.55l.31,.86-2,1.07Z" fill="#bbbaba"/><path d="M726.9,518.05v-.9c2.07-.17,2.31-.38,2.31-2.52v-6.59c0-1.9-.07-2.07-2.1-2.34v-.83c1.62-.28,3.03-.69,4.34-1.28v11.04c0,2.14,.24,2.34,2.31,2.52v.9h-6.86Zm1.69-18.79c0-.93,.72-1.62,1.59-1.62s1.52,.69,1.52,1.62c0,.83-.66,1.59-1.55,1.59-.83,0-1.55-.76-1.55-1.59Z" fill="#bbbaba"/><path d="M749.35,510.81c0,5.24-3.83,7.62-6.86,7.62-4.31,0-6.97-3.52-6.97-7.07,0-5.34,4.1-7.69,6.93-7.69,3.86,0,6.9,3.14,6.9,7.14Zm-11.1-.45c0,4,1.83,6.93,4.59,6.93,2.1,0,3.79-1.59,3.79-5.83,0-3.59-1.59-6.69-4.52-6.69-2,0-3.86,1.96-3.86,5.59Z" fill="#bbbaba"/><path d="M760.24,518.05v-.9c1.97-.21,2.21-.48,2.21-2.62v-5.28c0-2.24-.76-3.76-3.03-3.76-1.38,0-2.72,.86-3.72,1.79v7.34c0,2.24,.17,2.31,2.21,2.52v.9h-6.79v-.9c2.17-.21,2.35-.41,2.35-2.48v-6.48c0-2.07-.21-2.21-1.97-2.48v-.83c1.52-.28,2.97-.66,4.21-1.31v2.55c.62-.48,1.31-.93,2.14-1.45,.86-.59,1.79-1,2.72-1,2.52,0,4.14,1.76,4.14,4.83v6.14c0,2.21,.17,2.31,2.1,2.52v.9h-6.55Z" fill="#bbbaba"/><path d="M776.49,507.88c-.59-1.93-1.66-3.17-3.21-3.17-1.28,0-2.1,.97-2.1,2.28,0,1.48,1.34,2.21,2.72,2.79,2.38,.93,4.07,2.1,4.07,4.28,0,2.9-2.72,4.38-5.28,4.38-1.62,0-3.14-.62-3.66-1.1-.24-.45-.55-2.62-.55-3.72l1-.17c.52,2.14,1.86,3.9,3.79,3.9,1.21,0,2.38-.93,2.38-2.34s-1.03-2.17-2.52-2.86c-2.1-.97-4.1-1.93-4.1-4.38,0-2.21,1.93-4.07,4.83-4.07,1.31,0,2.17,.28,2.83,.55,.28,.72,.62,2.55,.72,3.41l-.93,.24Z" fill="#bbbaba"/><path d="M781.49,516.57c0-1,.72-1.79,1.76-1.79s1.79,.79,1.79,1.79c0,1.14-.76,1.86-1.79,1.86s-1.76-.72-1.76-1.86Zm3.31-18.83c0,.52-.07,1.24-.21,2.55-.38,3.69-.52,7.41-.79,11.59-.17,.21-1,.21-1.14,0-.28-4.17-.38-7.9-.79-11.59-.14-1.31-.24-2.03-.24-2.55,0-.69,.59-.9,1.59-.9s1.59,.21,1.59,.9Z" fill="#bbbaba"/></g><g><g><path d="M449.21,210.73c1.88-.38,4.58-.59,7.16-.59,3.98,0,6.56,.72,8.35,2.32,1.46,1.27,2.27,3.21,2.27,5.4,0,3.75-2.4,6.24-5.44,7.25v.13c2.23,.76,3.56,2.78,4.24,5.74,.94,3.96,1.63,6.71,2.23,7.8h-3.86c-.47-.8-1.11-3.25-1.93-6.79-.86-3.92-2.4-5.4-5.79-5.53h-3.51v12.32h-3.73v-28.05Zm3.73,12.95h3.81c3.98,0,6.51-2.15,6.51-5.4,0-3.67-2.7-5.27-6.64-5.31-1.8,0-3.08,.17-3.68,.34v10.38Z" fill="#91af36"/><path d="M477.15,229.83l-3,8.94h-3.86l9.81-28.43h4.5l9.85,28.43h-3.98l-3.08-8.94h-10.24Zm9.47-2.87l-2.83-8.18c-.64-1.86-1.07-3.54-1.5-5.19h-.09c-.43,1.69-.9,3.42-1.46,5.15l-2.83,8.22h8.7Z" fill="#91af36"/><path d="M498.71,210.73c1.89-.38,4.58-.59,7.16-.59,3.98,0,6.55,.72,8.35,2.32,1.46,1.27,2.27,3.21,2.27,5.4,0,3.75-2.4,6.24-5.44,7.25v.13c2.23,.76,3.56,2.78,4.24,5.74,.94,3.96,1.63,6.71,2.23,7.8h-3.86c-.47-.8-1.11-3.25-1.93-6.79-.86-3.92-2.4-5.4-5.78-5.53h-3.51v12.32h-3.73v-28.05Zm3.73,12.95h3.81c3.99,0,6.51-2.15,6.51-5.4,0-3.67-2.7-5.27-6.64-5.31-1.8,0-3.08,.17-3.68,.34v10.38Z" fill="#91af36"/><path d="M536.72,225.45h-11.23v10.25h12.51v3.08h-16.24v-28.43h15.6v3.08h-11.87v8.98h11.23v3.04Z" fill="#91af36"/><path d="M547.05,209.88c-.99,3.54-2.83,8.05-4.03,10l-2.4,.29c.94-2.49,2.06-6.87,2.53-9.91l3.9-.38Z" fill="#ffd236"/><path d="M550.97,210.35h3.73v19.02c0,7.55-3.77,9.87-8.74,9.87-1.37,0-3.04-.29-3.98-.67l.56-2.99c.77,.29,1.88,.55,3.13,.55,3.34,0,5.31-1.48,5.31-7.04v-18.73Z" fill="#01b3b7"/><path d="M566.11,210.35h3.73v19.02c0,7.55-3.77,9.87-8.74,9.87-1.37,0-3.04-.29-3.99-.67l.56-2.99c.77,.29,1.88,.55,3.13,.55,3.34,0,5.31-1.48,5.31-7.04v-18.73Z" fill="#01b3b7"/><path d="M591,225.45h-11.23v10.25h12.51v3.08h-16.24v-28.43h15.6v3.08h-11.87v8.98h11.23v3.04Z" fill="#01b3b7"/></g><g><g><g><path d="M547.04,329.5c-9.93,0-19.6-2.71-19.6-10.6,0-4.92,1.27-7.64,3.56-7.64,2.12,0,1.44,4.33,4.67,9.16,1.78,2.8,5.34,5.18,11.37,5.18,7.89,0,13.15-3.99,13.15-11.54,0-5.26-3.56-7.81-6.87-9.76-6.19-3.56-11.96-5.85-17.56-9.5-3.65-2.46-7.21-6.19-7.21-12.56,0-9.25,7.47-15.61,18.92-15.61,3.05,0,7.8,.42,12.05,1.95,3.22,1.19,5.17,3.14,5.17,6.19,0,3.9-1.27,8.65-3.73,8.65-1.87,0-1.87-3.22-2.88-5.85-1.44-3.99-3.65-7.04-11.45-7.04-7.21,0-10.6,3.99-10.6,9.25,0,3.39,.25,6.11,4.75,8.99,7.47,4.84,15.61,7.13,21.38,11.96,4.24,3.48,5.51,6.79,5.51,11.54,0,8.23-7.21,17.22-20.62,17.22Z" fill="#fff"/><path d="M621.62,321.02c0,3.82,1.36,4.41,2.63,4.41,.76,0,1.1,.34,1.1,1.02,0,1.61-1.87,1.7-3.22,1.7h-8.91c-1.36,0-3.22-.08-3.22-1.7,0-.68,.34-1.02,1.1-1.02,1.27,0,2.63-.59,2.63-4.41v-22.82h-26.38v22.82c0,3.82,1.44,4.41,2.54,4.41,.85,0,1.27,.34,1.27,1.02,0,1.61-1.95,1.7-3.31,1.7h-8.82c-1.36,0-3.39-.08-3.39-1.7,0-.68,.34-1.02,1.1-1.02,1.27,0,2.71-.59,2.71-4.41v-46.24c0-3.82-1.44-4.41-2.71-4.41-.76,0-1.1-.34-1.1-1.02,0-1.61,2.04-1.7,3.39-1.7h8.82c1.36,0,3.31,.08,3.31,1.7,0,.68-.42,1.02-1.27,1.02-1.1,0-2.54,.59-2.54,4.41v19.6h26.38v-19.6c0-3.82-1.36-4.41-2.63-4.41-.76,0-1.1-.34-1.1-1.02,0-1.61,1.87-1.7,3.22-1.7h8.91c1.36,0,3.22,.08,3.22,1.7,0,.68-.34,1.02-1.1,1.02-1.27,0-2.63,.59-2.63,4.41v46.24Z" fill="#fff"/><path d="M658.86,329.5c-14.17,0-25.37-11.2-25.37-29.95,0-24.26,11.71-33.09,26.98-33.09s25.11,11.45,25.11,29.61c0,22.23-11.62,33.43-26.72,33.43Zm.17-59.22c-10.1,0-16.8,7.21-16.8,25.37s4.92,29.95,17.99,29.95c8.57,0,16.54-6.79,16.54-25.28s-4.67-30.03-17.73-30.03Z" fill="#fff"/><path d="M717.99,267.65c8.31,0,19.85,2.97,19.85,15.78,0,16.2-13.74,19.68-20.7,19.68-5.17,0-9.08-.42-11.45-1.44v19.34c0,3.82,1.44,4.41,2.54,4.41,.85,0,1.27,.34,1.27,1.02,0,1.61-1.95,1.7-3.31,1.7h-8.82c-1.36,0-3.39-.08-3.39-1.7,0-.68,.34-1.02,1.1-1.02,1.27,0,2.71-.59,2.71-4.41v-46.24c0-3.82-1.44-4.41-2.71-4.41-.76,0-1.1-.34-1.1-1.02,0-1.61,2.04-1.7,3.22-1.7h20.79Zm-3.31,3.82c-7.21,0-8.99,0-8.99,3.9v18.83c0,3.65,3.48,5.01,9.5,5.01,7.64,0,14.25-3.22,14.25-14s-6.87-13.74-14.76-13.74Z" fill="#fff"/></g><path d="M516.68,271.45c-7.37,23.39-18.16,49.5-26.17,63.69-1.14,2.01-3.15,3.36-5.44,3.64l-3.44,.42c-5.26,.65-9.43-4.37-7.8-9.42,5.73-17.78,11.6-41.55,14.9-60.41,.56-3.21,3.2-5.64,6.45-5.95l13.87-1.35c5.17-.5,9.2,4.43,7.64,9.38Z" fill="#ffd236"/></g><rect x="450.06" y="247.46" width="313.99" height="110.86" rx="2.92" ry="2.92" fill="none" stroke="url(#New_Gradient_Swatch_1)" stroke-linecap="round" stroke-miterlimit="10" stroke-width="1.69"/></g></g></g></svg>