<?xml version="1.0" encoding="UTF-8"?><svg id="Layer_2" xmlns="http://www.w3.org/2000/svg" xmlns:xlink="http://www.w3.org/1999/xlink" viewBox="0 0 237.85 116.11"><defs><linearGradient id="New_Gradient_Swatch_1" x1="2.43" y1="74.14" x2="237.85" y2="74.14" gradientUnits="userSpaceOnUse"><stop offset="0" stop-color="#91af36"/><stop offset=".16" stop-color="#8daf38"/><stop offset=".29" stop-color="#83af41"/><stop offset=".41" stop-color="#72af51"/><stop offset=".52" stop-color="#5ab066"/><stop offset=".62" stop-color="#3bb182"/><stop offset=".73" stop-color="#16b2a3"/><stop offset=".78" stop-color="#01b3b7"/></linearGradient></defs><g id="Layer_1-2"><g><g><path d="M2.43,5.42c1.41-.28,3.42-.44,5.34-.44,2.97,0,4.89,.53,6.23,1.73,1.09,.94,1.69,2.39,1.69,4.03,0,2.8-1.79,4.65-4.06,5.41v.09c1.66,.57,2.65,2.08,3.16,4.28,.7,2.96,1.21,5,1.66,5.82h-2.88c-.35-.6-.83-2.42-1.44-5.06-.64-2.92-1.79-4.03-4.31-4.12h-2.62v9.18H2.43V5.42Zm2.78,9.65h2.84c2.97,0,4.86-1.6,4.86-4.03,0-2.74-2.01-3.93-4.95-3.96-1.34,0-2.3,.13-2.75,.25v7.74Z" fill="#91af36"/><path d="M23.26,19.66l-2.24,6.67h-2.88L25.47,5.13h3.35l7.35,21.2h-2.97l-2.3-6.67h-7.64Zm7.06-2.14l-2.11-6.1c-.48-1.38-.8-2.64-1.12-3.87h-.06c-.32,1.26-.67,2.55-1.09,3.84l-2.11,6.13h6.49Z" fill="#91af36"/><path d="M39.34,5.42c1.41-.28,3.42-.44,5.34-.44,2.97,0,4.89,.53,6.23,1.73,1.09,.94,1.69,2.39,1.69,4.03,0,2.8-1.79,4.65-4.06,5.41v.09c1.66,.57,2.65,2.08,3.16,4.28,.7,2.96,1.21,5,1.66,5.82h-2.88c-.35-.6-.83-2.42-1.44-5.06-.64-2.92-1.79-4.03-4.31-4.12h-2.62v9.18h-2.78V5.42Zm2.78,9.65h2.84c2.97,0,4.86-1.6,4.86-4.03,0-2.74-2.01-3.93-4.95-3.96-1.34,0-2.3,.13-2.75,.25v7.74Z" fill="#91af36"/><path d="M67.68,16.39h-8.37v7.64h9.33v2.3h-12.11V5.13h11.63v2.3h-8.85v6.7h8.37v2.26Z" fill="#91af36"/><path d="M75.39,4.79c-.73,2.64-2.11,6.01-3,7.45l-1.79,.22c.7-1.86,1.53-5.13,1.89-7.39l2.91-.28Z" fill="#ffd236"/><path d="M78.31,5.13h2.78v14.18c0,5.63-2.81,7.36-6.52,7.36-1.02,0-2.27-.22-2.97-.5l.42-2.23c.58,.22,1.41,.41,2.33,.41,2.49,0,3.96-1.1,3.96-5.25V5.13Z" fill="#01b3b7"/><path d="M89.6,5.13h2.78v14.18c0,5.63-2.81,7.36-6.52,7.36-1.02,0-2.27-.22-2.97-.5l.42-2.23c.58,.22,1.41,.41,2.33,.41,2.49,0,3.96-1.1,3.96-5.25V5.13Z" fill="#01b3b7"/><path d="M108.17,16.39h-8.37v7.64h9.33v2.3h-12.11V5.13h11.63v2.3h-8.85v6.7h8.37v2.26Z" fill="#01b3b7"/></g><g><g><g><path d="M75.38,93.99c-7.4,0-14.61-2.02-14.61-7.91,0-3.67,.95-5.69,2.66-5.69,1.58,0,1.08,3.23,3.48,6.83,1.33,2.09,3.99,3.86,8.48,3.86,5.88,0,9.81-2.97,9.81-8.6,0-3.92-2.66-5.82-5.12-7.28-4.62-2.66-8.92-4.37-13.1-7.09-2.72-1.83-5.38-4.62-5.38-9.36,0-6.9,5.57-11.64,14.11-11.64,2.28,0,5.82,.32,8.98,1.46,2.4,.89,3.86,2.34,3.86,4.62,0,2.91-.95,6.45-2.78,6.45-1.39,0-1.39-2.4-2.15-4.37-1.08-2.97-2.72-5.25-8.54-5.25-5.38,0-7.91,2.97-7.91,6.9,0,2.53,.19,4.56,3.54,6.71,5.57,3.61,11.64,5.31,15.94,8.92,3.16,2.59,4.11,5.06,4.11,8.6,0,6.14-5.38,12.84-15.37,12.84Z" fill="#fff"/><path d="M131,87.66c0,2.85,1.01,3.29,1.96,3.29,.57,0,.82,.25,.82,.76,0,1.2-1.39,1.27-2.4,1.27h-6.64c-1.01,0-2.4-.06-2.4-1.27,0-.51,.25-.76,.82-.76,.95,0,1.96-.44,1.96-3.29v-17.02h-19.67v17.02c0,2.85,1.08,3.29,1.9,3.29,.63,0,.95,.25,.95,.76,0,1.2-1.46,1.27-2.47,1.27h-6.58c-1.01,0-2.53-.06-2.53-1.27,0-.51,.25-.76,.82-.76,.95,0,2.02-.44,2.02-3.29V53.18c0-2.85-1.08-3.29-2.02-3.29-.57,0-.82-.25-.82-.76,0-1.2,1.52-1.27,2.53-1.27h6.58c1.01,0,2.47,.06,2.47,1.27,0,.51-.32,.76-.95,.76-.82,0-1.9,.44-1.9,3.29v14.61h19.67v-14.61c0-2.85-1.01-3.29-1.96-3.29-.57,0-.82-.25-.82-.76,0-1.2,1.39-1.27,2.4-1.27h6.64c1.01,0,2.4,.06,2.4,1.27,0,.51-.25,.76-.82,.76-.95,0-1.96,.44-1.96,3.29v34.48Z" fill="#fff"/><path d="M158.77,93.99c-10.56,0-18.92-8.35-18.92-22.33,0-18.09,8.73-24.67,20.12-24.67s18.73,8.54,18.73,22.08c0,16.58-8.67,24.93-19.93,24.93Zm.13-44.16c-7.53,0-12.53,5.38-12.53,18.92s3.67,22.33,13.41,22.33c6.39,0,12.34-5.06,12.34-18.85s-3.48-22.4-13.22-22.4Z" fill="#fff"/><path d="M202.87,47.87c6.2,0,14.8,2.21,14.8,11.77,0,12.08-10.25,14.68-15.44,14.68-3.86,0-6.77-.32-8.54-1.08v14.42c0,2.85,1.08,3.29,1.9,3.29,.63,0,.95,.25,.95,.76,0,1.2-1.46,1.27-2.47,1.27h-6.58c-1.01,0-2.53-.06-2.53-1.27,0-.51,.25-.76,.82-.76,.95,0,2.02-.44,2.02-3.29V53.18c0-2.85-1.08-3.29-2.02-3.29-.57,0-.82-.25-.82-.76,0-1.2,1.52-1.27,2.4-1.27h15.5Zm-2.47,2.85c-5.38,0-6.71,0-6.71,2.91v14.04c0,2.72,2.59,3.73,7.08,3.73,5.69,0,10.63-2.4,10.63-10.44s-5.12-10.25-11.01-10.25Z" fill="#fff"/></g><path d="M52.74,50.7c-5.49,17.44-13.54,36.91-19.52,47.5-.85,1.5-2.35,2.5-4.06,2.71l-2.57,.32c-3.93,.48-7.03-3.26-5.82-7.03,4.27-13.26,8.65-30.99,11.11-45.05,.42-2.39,2.39-4.2,4.81-4.44l10.34-1.01c3.85-.38,6.86,3.3,5.7,6.99Z" fill="#ffd236"/></g><rect x="3.06" y="32.8" width="234.15" height="82.67" rx="2.92" ry="2.92" fill="none" stroke="url(#New_Gradient_Swatch_1)" stroke-linecap="round" stroke-miterlimit="10" stroke-width="1.26"/></g></g></g></svg>